<svg style="display: none">

<svg id="logo" width="21" height="30" viewBox="0 0 21 30" fill="none" xmlns="http://www.w3.org/2000/svg">
<path d="M10.5 10C16.299 10 21 14.4772 21 20C21 25.5228 16.299 30 10.5 30C4.70101 30 -1.95703e-07 25.5228 -4.37114e-07 20C-6.78525e-07 14.4772 4.70101 10 10.5 10Z" fill="url(#paint0_radial_20_530)"/>
<path d="M10.5 5C16.299 5 21 9.47715 21 15C21 20.5228 16.299 25 10.5 25C4.70101 25 -1.95703e-07 20.5228 -4.37114e-07 15C-6.78525e-07 9.47715 4.70101 5 10.5 5Z" fill="url(#paint1_radial_20_530)"/>
<path d="M10.5 -4.5897e-07C16.299 -7.12451e-07 21 4.47715 21 10C21 15.5228 16.299 20 10.5 20C4.70101 20 -1.95703e-07 15.5228 -4.37114e-07 10C-6.78525e-07 4.47715 4.70101 -2.05488e-07 10.5 -4.5897e-07Z" fill="url(#paint2_radial_20_530)"/>
<defs>
<radialGradient id="paint0_radial_20_530" cx="0" cy="0" r="1" gradientUnits="userSpaceOnUse" gradientTransform="translate(6.90789 27.6316) rotate(-40.6629) scale(18.5775 19.3459)">
<stop stop-color="#FF5555"/>
<stop offset="1" stop-color="#FFDE31"/>
</radialGradient>
<radialGradient id="paint1_radial_20_530" cx="0" cy="0" r="1" gradientUnits="userSpaceOnUse" gradientTransform="translate(2.45 -5) rotate(63.0922) scale(27.0685 28.4998)">
<stop stop-color="#FF5555"/>
<stop offset="1" stop-color="#FFDE31"/>
</radialGradient>
<radialGradient id="paint2_radial_20_530" cx="0" cy="0" r="1" gradientUnits="userSpaceOnUse" gradientTransform="translate(6.90789 17.6316) rotate(-40.6629) scale(18.5775 19.3459)">
<stop stop-color="#FF5555"/>
<stop offset="1" stop-color="#FFDE31"/>
</radialGradient>
</defs>
</svg>

<svg id='icon-right' width="10" height="12" viewBox="0 0 10 12" fill="none" xmlns="http://www.w3.org/2000/svg">
<path d="M9.5 5.13399C10.1667 5.51889 10.1667 6.48114 9.5 6.86604L2 11.1962C1.33333 11.5811 0.5 11.0999 0.5 10.3301V1.66989C0.5 0.900087 1.33333 0.418962 2 0.803863L9.5 5.13399Z" fill="black"/>
</svg>

<svg id='icon-left' width="10" height="12" viewBox="0 0 10 12" fill="none" xmlns="http://www.w3.org/2000/svg">
<path d="M0.5 5.13399C-0.166667 5.51889 -0.166667 6.48114 0.5 6.86604L8 11.1962C8.66667 11.5811 9.5 11.0999 9.5 10.3301V1.66989C9.5 0.900087 8.66667 0.418962 8 0.803863L0.5 5.13399Z" fill="black"/>
</svg>

<svg id='line' width="1" height="28" viewBox="0 0 1 28" fill="none" xmlns="http://www.w3.org/2000/svg">
<line x1="0.5" x2="0.5" y2="28" stroke="#F5F5F5"/>
</svg>

<svg id='phone' width="24" height="24" viewBox="0 0 24 24" fill="none" xmlns="http://www.w3.org/2000/svg">
<path d="M20 22.621L16.479 15.826C16.471 15.83 14.505 16.796 14.415 16.837C12.175 17.923 7.61604 9.017 9.80604 7.843L11.889 6.817L8.39604 0L6.29004 1.039C-0.911963 4.794 10.523 27.021 17.89 23.654C18.011 23.599 19.992 22.625 20 22.621Z" fill="black"/>
</svg>

<svg id='plus' width="28" height="36" viewBox="0 0 28 36" fill="none" xmlns="http://www.w3.org/2000/svg">
<rect x="5" y="13" width="2" height="14" rx="1" transform="rotate(-90 5 13)" fill="black"/>
<rect x="13" y="19" width="2" height="14" rx="1" transform="rotate(180 13 19)" fill="black"/>
<line x1="-2.18557e-08" y1="35.5" x2="28" y2="35.5" stroke="#F5F5F5"/>
</svg>

<svg id='minus' width="24" height="24" viewBox="0 0 24 24" fill="none" xmlns="http://www.w3.org/2000/svg">
<rect x="5" y="13" width="2" height="14" rx="1" transform="rotate(-90 5 13)" fill="black"/>
</svg>

<svg id='facebook' width="24" height="24" viewBox="0 0 24 24" fill="none" xmlns="http://www.w3.org/2000/svg">
<g clip-path="url(#clip0_29_646)">
<path d="M12 0C5.373 0 0 5.373 0 12C0 18.627 5.373 24 12 24C18.627 24 24 18.627 24 12C24 5.373 18.627 0 12 0ZM15 8H13.65C13.112 8 13 8.221 13 8.778V10H15L14.791 12H13V19H10V12H8V10H10V7.692C10 5.923 10.931 5 13.029 5H15V8Z" fill="black"/>
</g>
<defs>
<clipPath id="clip0_29_646">
<rect width="24" height="24" fill="white"/>
</clipPath>
</defs>
</svg>

<svg id='vk' width="24" height="24" viewBox="0 0 24 24" fill="none" xmlns="http://www.w3.org/2000/svg">
<g clip-path="url(#clip0_29_648)">
<path d="M12 0C5.373 0 0 5.373 0 12C0 18.627 5.373 24 12 24C18.627 24 24 18.627 24 12C24 5.373 18.627 0 12 0ZM18.344 16.163H16.477C15.422 16.163 15.245 15.562 14.375 14.694C13.59 13.909 13.155 14.511 13.173 15.629C13.179 15.926 13.032 16.163 12.678 16.163C11.573 16.163 9.984 16.319 8.374 14.583C6.727 12.804 5 9.235 5 8.884C5 8.676 5.172 8.583 5.459 8.583H7.357C7.86 8.583 7.902 8.832 8.043 9.151C8.627 10.482 10.024 13.153 10.397 11.662C10.611 10.806 10.698 8.823 9.782 8.652C9.262 8.556 10.178 8 11.504 8C11.834 8 12.192 8.035 12.558 8.12C13.231 8.276 13.234 8.578 13.224 9.018C13.19 10.684 12.989 11.804 13.428 12.087C13.847 12.358 14.949 10.585 15.532 9.216C15.691 8.838 15.723 8.584 16.175 8.584H18.497C19.713 8.584 18.338 10.332 17.287 11.696C16.44 12.795 16.485 12.816 17.47 13.73C18.171 14.381 19 15.27 19 15.773C19 16.011 18.814 16.163 18.344 16.163Z" fill="black"/>
</g>
<defs>
<clipPath id="clip0_29_648">
<rect width="24" height="24" fill="white"/>
</clipPath>
</defs>
</svg>

<svg id='close' width="24" height="24" viewBox="0 0 24 24" fill="none" xmlns="http://www.w3.org/2000/svg">
<path d="M21 3L3 21" stroke="black" stroke-width="2"/>
<path d="M21 21L3 3" stroke="black" stroke-width="2"/>
</svg>

<svg id='arrow-select' width="24" height="24" viewBox="0 0 24 24" fill="none" xmlns="http://www.w3.org/2000/svg">
<path d="M12.866 17.5C12.4811 18.1667 11.5189 18.1667 11.134 17.5L6.80383 10C6.41893 9.33333 6.90006 8.5 7.66986 8.5L16.3301 8.5C17.0999 8.5 17.581 9.33333 17.1961 10L12.866 17.5Z" fill="black"/>
</svg>

<svg id='valid' width="24" height="24" viewBox="0 0 24 24" fill="none" xmlns="http://www.w3.org/2000/svg">
<path d="M7 12.5L9.76768 15.9963C10.1713 16.5062 10.9467 16.5012 11.3437 15.9862L17.5 8" stroke="#10C300" stroke-width="2" stroke-linecap="round"/>
</svg>

<svg id='upload' width="24" height="24" viewBox="0 0 24 24" fill="none" xmlns="http://www.w3.org/2000/svg">
<g opacity="0.3">
<path d="M17 5V17C17 19.757 14.757 22 12 22C9.243 22 7 19.757 7 17V5C7 3.346 8.346 2 10 2C11.654 2 13 3.346 13 5V14C13 14.551 12.551 15 12 15C11.449 15 11 14.551 11 14V6H9V14C9 15.657 10.343 17 12 17C13.657 17 15 15.657 15 14V5C15 2.239 12.761 0 10 0C7.239 0 5 2.239 5 5V17C5 20.866 8.134 24 12 24C15.866 24 19 20.866 19 17V5H17Z" fill="black"/>
</g>
</svg>
