<svg style="display: none">

<svg id="logo" width="21" height="30" viewBox="0 0 21 30" fill="none" xmlns="http://www.w3.org/2000/svg">
<path d="M10.5 10C16.299 10 21 14.4772 21 20C21 25.5228 16.299 30 10.5 30C4.70101 30 -1.95703e-07 25.5228 -4.37114e-07 20C-6.78525e-07 14.4772 4.70101 10 10.5 10Z" fill="url(#paint0_radial_20_530)"/>
<path d="M10.5 5C16.299 5 21 9.47715 21 15C21 20.5228 16.299 25 10.5 25C4.70101 25 -1.95703e-07 20.5228 -4.37114e-07 15C-6.78525e-07 9.47715 4.70101 5 10.5 5Z" fill="url(#paint1_radial_20_530)"/>
<path d="M10.5 -4.5897e-07C16.299 -7.12451e-07 21 4.47715 21 10C21 15.5228 16.299 20 10.5 20C4.70101 20 -1.95703e-07 15.5228 -4.37114e-07 10C-6.78525e-07 4.47715 4.70101 -2.05488e-07 10.5 -4.5897e-07Z" fill="url(#paint2_radial_20_530)"/>
<defs>
<radialGradient id="paint0_radial_20_530" cx="0" cy="0" r="1" gradientUnits="userSpaceOnUse" gradientTransform="translate(6.90789 27.6316) rotate(-40.6629) scale(18.5775 19.3459)">
<stop stop-color="#FF5555"/>
<stop offset="1" stop-color="#FFDE31"/>
</radialGradient>
<radialGradient id="paint1_radial_20_530" cx="0" cy="0" r="1" gradientUnits="userSpaceOnUse" gradientTransform="translate(2.45 -5) rotate(63.0922) scale(27.0685 28.4998)">
<stop stop-color="#FF5555"/>
<stop offset="1" stop-color="#FFDE31"/>
</radialGradient>
<radialGradient id="paint2_radial_20_530" cx="0" cy="0" r="1" gradientUnits="userSpaceOnUse" gradientTransform="translate(6.90789 17.6316) rotate(-40.6629) scale(18.5775 19.3459)">
<stop stop-color="#FF5555"/>
<stop offset="1" stop-color="#FFDE31"/>
</radialGradient>
</defs>
</svg>

<svg id='icon-right' width="10" height="12" viewBox="0 0 10 12" fill="none" xmlns="http://www.w3.org/2000/svg">
<path d="M9.5 5.13399C10.1667 5.51889 10.1667 6.48114 9.5 6.86604L2 11.1962C1.33333 11.5811 0.5 11.0999 0.5 10.3301V1.66989C0.5 0.900087 1.33333 0.418962 2 0.803863L9.5 5.13399Z" fill="black"/>
</svg>

<svg id='icon-left' width="10" height="12" viewBox="0 0 10 12" fill="none" xmlns="http://www.w3.org/2000/svg">
<path d="M0.5 5.13399C-0.166667 5.51889 -0.166667 6.48114 0.5 6.86604L8 11.1962C8.66667 11.5811 9.5 11.0999 9.5 10.3301V1.66989C9.5 0.900087 8.66667 0.418962 8 0.803863L0.5 5.13399Z" fill="black"/>
</svg>

<svg id='line' width="1" height="28" viewBox="0 0 1 28" fill="none" xmlns="http://www.w3.org/2000/svg">
<line x1="0.5" x2="0.5" y2="28" stroke="#F5F5F5"/>
</svg>

<svg id='phone' width="24" height="24" viewBox="0 0 24 24" fill="none" xmlns="http://www.w3.org/2000/svg">
<path d="M20 22.621L16.479 15.826C16.471 15.83 14.505 16.796 14.415 16.837C12.175 17.923 7.61604 9.017 9.80604 7.843L11.889 6.817L8.39604 0L6.29004 1.039C-0.911963 4.794 10.523 27.021 17.89 23.654C18.011 23.599 19.992 22.625 20 22.621Z" fill="black"/>
</svg>


